<svg width="28" height="28" viewBox="0 0 28 28" fill="none" xmlns="http://www.w3.org/2000/svg">
<path fill-rule="evenodd" clip-rule="evenodd" d="M19.5005 6.67356C20.1381 6.49512 20.77 6.97444 20.77 7.63656V14.927C20.3154 14.7111 19.8068 14.5902 19.27 14.5902C17.337 14.5902 15.77 16.1572 15.77 18.0902C15.77 20.0232 17.337 21.5902 19.27 21.5902C21.203 21.5902 22.77 20.0232 22.77 18.0902C22.77 18.0454 22.7692 18.0008 22.7675 17.9564H22.77V16.9564V7.63656C22.77 5.65019 20.8744 4.21223 18.9615 4.74757L12.1915 6.64222C10.8958 7.00483 10 8.18575 10 9.53122V17.3368C9.54537 17.1209 9.0368 17 8.5 17C6.567 17 5 18.567 5 20.5C5 22.433 6.567 24 8.5 24C10.433 24 12 22.433 12 20.5C12 20.3302 11.9879 20.1633 11.9646 20H12V19V9.53122C12 9.08273 12.2986 8.68909 12.7305 8.56822L19.5005 6.67356ZM19.27 19.5902C20.0984 19.5902 20.77 18.9186 20.77 18.0902C20.77 17.2618 20.0984 16.5902 19.27 16.5902C18.4416 16.5902 17.77 17.2618 17.77 18.0902C17.77 18.9186 18.4416 19.5902 19.27 19.5902ZM8.5 22C9.32843 22 10 21.3284 10 20.5C10 19.6716 9.32843 19 8.5 19C7.67157 19 7 19.6716 7 20.5C7 21.3284 7.67157 22 8.5 22Z" fill="#CCCCCC"/>
</svg>
