<svg width="16" height="16" viewBox="0 0 16 16" fill="none" xmlns="http://www.w3.org/2000/svg">
<circle cx="8" cy="8" r="8" fill="black" fill-opacity="0.5"/>
<path fill-rule="evenodd" clip-rule="evenodd" d="M7.5 3.5C7.5 3.22386 7.72386 3 8 3C8.27614 3 8.5 3.22386 8.5 3.5L8.5 10.2929L10.6464 8.14645C10.8417 7.95118 11.1583 7.95118 11.3536 8.14645C11.5488 8.34171 11.5488 8.65829 11.3536 8.85355L8.56569 11.6414C8.25327 11.9538 7.74673 11.9538 7.43431 11.6414L4.64645 8.85355C4.45118 8.65829 4.45118 8.34171 4.64645 8.14645C4.84171 7.95118 5.15829 7.95118 5.35355 8.14645L7.5 10.2929L7.5 3.5Z" fill="white" fill-opacity="0.8"/>
</svg>
