<svg width="28" height="28" viewBox="0 0 28 28" fill="none" xmlns="http://www.w3.org/2000/svg">
<path d="M9.64519 12.7955C9.58368 12.4245 9.56662 12.0399 9.59924 11.648C9.81285 9.08097 12.0764 7.16925 14.6549 7.37802C17.2335 7.5868 19.1507 9.83701 18.9371 12.404C18.7747 14.3553 17.4278 15.928 15.6584 16.4785" stroke="#8372FF" stroke-width="2" stroke-linecap="round"/>
<path d="M13.2852 21.2482C12.9962 21.4906 12.6729 21.7018 12.3179 21.8743C9.99272 23.0037 7.18825 22.0425 6.05389 19.7276C4.91954 17.4126 5.88487 14.6203 8.21 13.4909C9.97749 12.6324 12.0219 12.9819 13.3992 14.2158" stroke="#8372FF" stroke-width="2" stroke-linecap="round"/>
<path d="M18.8811 13.1415C19.2445 13.2446 19.6012 13.3934 19.9432 13.59C22.1837 14.8779 22.9514 17.7303 21.6578 19.961C20.3643 22.1917 17.4994 22.956 15.2589 21.6681C13.5558 20.6891 12.7037 18.8061 12.9612 16.9793" stroke="#8372FF" stroke-width="2" stroke-linecap="round"/>
</svg>
