<svg width="29" height="28" viewBox="0 0 29 28" fill="none" xmlns="http://www.w3.org/2000/svg">
<path fill-rule="evenodd" clip-rule="evenodd" d="M16.7951 8.3452C16.4045 7.95468 15.7714 7.95468 15.3809 8.3452L4.79558 18.9305C4.40505 19.321 4.40506 19.9542 4.79558 20.3447L7.94105 23.4902C8.33157 23.8807 8.96474 23.8807 9.35526 23.4902L19.9405 12.9049C20.3311 12.5144 20.3311 11.8812 19.9405 11.4907L16.7951 8.3452ZM13.9556 12.5989L16.088 10.4665L17.8192 12.1978L15.6868 14.3301L13.9556 12.5989ZM12.5414 14.0131L6.9169 19.6376L8.64815 21.3688L14.2726 15.7444L12.5414 14.0131Z" fill="white" fill-opacity="0.5"/>
<path fill-rule="evenodd" clip-rule="evenodd" d="M17.6498 3C17.6498 2.44772 17.2021 2 16.6498 2C16.0975 2 15.6498 2.44772 15.6498 3V5C15.6498 5.55228 16.0975 6 16.6498 6C17.2021 6 17.6498 5.55228 17.6498 5V3ZM25.6498 11C26.202 11 26.6498 11.4477 26.6498 12C26.6498 12.5523 26.202 13 25.6498 13H23.6498C23.0975 13 22.6498 12.5523 22.6498 12C22.6498 11.4477 23.0975 11 23.6498 11H25.6498ZM9.57866 4.92901C9.96918 4.53848 10.6023 4.53848 10.9929 4.92901L12.4071 6.34322C12.7976 6.73375 12.7976 7.36691 12.4071 7.75743C12.0166 8.14796 11.3834 8.14796 10.9929 7.75743L9.57866 6.34322C9.18814 5.9527 9.18814 5.31953 9.57866 4.92901ZM22.3066 19.0711C22.6971 19.4617 23.3303 19.4617 23.7208 19.0711C24.1113 18.6806 24.1113 18.0474 23.7208 17.6569L22.3066 16.2427C21.916 15.8522 21.2829 15.8522 20.8924 16.2427C20.5018 16.6332 20.5018 17.2664 20.8924 17.6569L22.3066 19.0711ZM23.7209 4.92901C24.1114 5.31953 24.1114 5.9527 23.7209 6.34322L22.3067 7.75743C21.9161 8.14796 21.283 8.14796 20.8924 7.75743C20.5019 7.36691 20.5019 6.73375 20.8924 6.34322L22.3067 4.92901C22.6972 4.53848 23.3303 4.53848 23.7209 4.92901Z" fill="white" fill-opacity="0.5"/>
</svg>
