<svg width="29" height="28" viewBox="0 0 29 28" fill="none" xmlns="http://www.w3.org/2000/svg">
<path fill-rule="evenodd" clip-rule="evenodd" d="M22.7144 14.5C22.7144 19.1944 18.9088 23 14.2144 23C9.51994 23 5.71436 19.1944 5.71436 14.5C5.71436 9.80558 9.51994 6 14.2144 6C18.9088 6 22.7144 9.80558 22.7144 14.5ZM20.38 23C23.0066 21.0914 24.7144 17.9952 24.7144 14.5C24.7144 8.70101 20.0133 4 14.2144 4C8.41537 4 3.71436 8.70101 3.71436 14.5C3.71436 20.0569 8.03113 24.6057 13.4942 24.9757C13.5651 24.9916 13.6387 25 13.7144 25H14.2144H22.7144C23.2666 25 23.7144 24.5523 23.7144 24C23.7144 23.4477 23.2666 23 22.7144 23H20.38ZM10.4144 14.4938C10.4144 14.0171 10.0279 13.6306 9.55115 13.6306C9.07441 13.6306 8.68794 14.0171 8.68794 14.4938C8.68794 14.9706 9.07441 15.357 9.55115 15.357C10.0279 15.357 10.4144 14.9706 10.4144 14.4938ZM9.55115 17.0306C8.15012 17.0306 7.01436 15.8949 7.01436 14.4938C7.01436 13.0928 8.15012 11.957 9.55115 11.957C10.9522 11.957 12.0879 13.0928 12.0879 14.4938C12.0879 15.8949 10.9522 17.0306 9.55115 17.0306ZM15.0713 9.8368C15.0713 10.3135 14.6849 10.7 14.2081 10.7C13.7314 10.7 13.3449 10.3135 13.3449 9.8368C13.3449 9.36006 13.7314 8.97358 14.2081 8.97358C14.6849 8.97358 15.0713 9.36006 15.0713 9.8368ZM14.2081 7.30001C12.8071 7.30001 11.6713 8.43577 11.6713 9.83679C11.6713 11.2378 12.8071 12.3736 14.2081 12.3736C15.6092 12.3736 16.7449 11.2378 16.7449 9.8368C16.7449 8.43577 15.6092 7.30001 14.2081 7.30001ZM19.7284 14.4938C19.7284 14.0171 19.342 13.6306 18.8652 13.6306C18.3885 13.6306 18.002 14.0171 18.002 14.4938C18.002 14.9706 18.3885 15.357 18.8652 15.357C19.342 15.357 19.7284 14.9706 19.7284 14.4938ZM18.8652 17.0306C17.4642 17.0306 16.3284 15.8949 16.3284 14.4938C16.3284 13.0928 17.4642 11.957 18.8652 11.957C20.2663 11.957 21.402 13.0928 21.402 14.4938C21.402 15.8949 20.2663 17.0306 18.8652 17.0306ZM15.0713 19.1509C15.0713 19.6276 14.6849 20.0141 14.2081 20.0141C13.7314 20.0141 13.3449 19.6276 13.3449 19.1509C13.3449 18.6741 13.7314 18.2877 14.2081 18.2877C14.6849 18.2877 15.0713 18.6741 15.0713 19.1509ZM14.2081 16.6141C12.8071 16.6141 11.6713 17.7499 11.6713 19.1509C11.6713 20.5519 12.8071 21.6877 14.2081 21.6877C15.6092 21.6877 16.7449 20.5519 16.7449 19.1509C16.7449 17.7499 15.6092 16.6141 14.2081 16.6141Z" fill="#8372FF"/>
</svg>
