<svg width="28" height="29" viewBox="0 0 28 29" fill="none" xmlns="http://www.w3.org/2000/svg">
<path fill-rule="evenodd" clip-rule="evenodd" d="M19.5005 6.9102C20.1381 6.73175 20.77 7.21107 20.77 7.8732V15.1637C20.3154 14.9477 19.8068 14.8268 19.27 14.8268C17.337 14.8268 15.77 16.3938 15.77 18.3268C15.77 20.2598 17.337 21.8268 19.27 21.8268C21.203 21.8268 22.77 20.2598 22.77 18.3268C22.77 18.282 22.7692 18.2374 22.7675 18.193H22.77V17.193V7.8732C22.77 5.88682 20.8744 4.44886 18.9615 4.9842L12.1915 6.87885C10.8958 7.24147 10 8.42238 10 9.76785V17.5735C9.54537 17.3575 9.0368 17.2366 8.5 17.2366C6.567 17.2366 5 18.8036 5 20.7366C5 22.6696 6.567 24.2366 8.5 24.2366C10.433 24.2366 12 22.6696 12 20.7366C12 20.5669 11.9879 20.3999 11.9646 20.2366H12V19.2366V9.76785C12 9.31936 12.2986 8.92572 12.7305 8.80485L19.5005 6.9102ZM19.27 19.8268C20.0984 19.8268 20.77 19.1553 20.77 18.3268C20.77 17.4984 20.0984 16.8268 19.27 16.8268C18.4416 16.8268 17.77 17.4984 17.77 18.3268C17.77 19.1553 18.4416 19.8268 19.27 19.8268ZM8.5 22.2366C9.32843 22.2366 10 21.5651 10 20.7366C10 19.9082 9.32843 19.2366 8.5 19.2366C7.67157 19.2366 7 19.9082 7 20.7366C7 21.5651 7.67157 22.2366 8.5 22.2366Z" fill="#8372FF"/>
</svg>
