<svg width="28" height="28" viewBox="0 0 28 28" fill="none" xmlns="http://www.w3.org/2000/svg">
<path fill-rule="evenodd" clip-rule="evenodd" d="M22 14.5C22 19.1944 18.1944 23 13.5 23C8.80558 23 5 19.1944 5 14.5C5 9.80558 8.80558 6 13.5 6C18.1944 6 22 9.80558 22 14.5ZM19.6657 23C22.2923 21.0914 24 17.9952 24 14.5C24 8.70101 19.299 4 13.5 4C7.70101 4 3 8.70101 3 14.5C3 20.0569 7.31677 24.6057 12.7799 24.9757C12.8507 24.9916 12.9244 25 13 25H13.5H22C22.5523 25 23 24.5523 23 24C23 23.4477 22.5523 23 22 23H19.6657ZM9.70001 14.4938C9.70001 14.0171 9.31353 13.6306 8.8368 13.6306C8.36006 13.6306 7.97358 14.0171 7.97358 14.4938C7.97358 14.9706 8.36006 15.357 8.8368 15.357C9.31353 15.357 9.70001 14.9706 9.70001 14.4938ZM8.8368 17.0306C7.43577 17.0306 6.30001 15.8949 6.30001 14.4938C6.30001 13.0928 7.43577 11.957 8.8368 11.957C10.2378 11.957 11.3736 13.0928 11.3736 14.4938C11.3736 15.8949 10.2378 17.0306 8.8368 17.0306ZM14.357 9.8368C14.357 10.3135 13.9705 10.7 13.4938 10.7C13.017 10.7 12.6306 10.3135 12.6306 9.8368C12.6306 9.36006 13.017 8.97358 13.4938 8.97358C13.9705 8.97358 14.357 9.36006 14.357 9.8368ZM13.4938 7.30001C12.0927 7.30001 10.957 8.43577 10.957 9.83679C10.957 11.2378 12.0927 12.3736 13.4938 12.3736C14.8948 12.3736 16.0306 11.2378 16.0306 9.8368C16.0306 8.43577 14.8948 7.30001 13.4938 7.30001ZM19.0141 14.4938C19.0141 14.0171 18.6276 13.6306 18.1509 13.6306C17.6741 13.6306 17.2877 14.0171 17.2877 14.4938C17.2877 14.9706 17.6741 15.357 18.1509 15.357C18.6276 15.357 19.0141 14.9706 19.0141 14.4938ZM18.1509 17.0306C16.7499 17.0306 15.6141 15.8949 15.6141 14.4938C15.6141 13.0928 16.7499 11.957 18.1509 11.957C19.5519 11.957 20.6877 13.0928 20.6877 14.4938C20.6877 15.8949 19.5519 17.0306 18.1509 17.0306ZM14.357 19.1509C14.357 19.6276 13.9705 20.0141 13.4938 20.0141C13.017 20.0141 12.6306 19.6276 12.6306 19.1509C12.6306 18.6741 13.017 18.2877 13.4938 18.2877C13.9705 18.2877 14.357 18.6741 14.357 19.1509ZM13.4938 16.6141C12.0927 16.6141 10.957 17.7499 10.957 19.1509C10.957 20.5519 12.0927 21.6877 13.4938 21.6877C14.8948 21.6877 16.0306 20.5519 16.0306 19.1509C16.0306 17.7499 14.8948 16.6141 13.4938 16.6141Z" fill="white" fill-opacity="0.5"/>
</svg>
