<svg width="28" height="28" viewBox="0 0 28 28" fill="none" xmlns="http://www.w3.org/2000/svg">
<path fill-rule="evenodd" clip-rule="evenodd" d="M16.5094 8.3452C16.1188 7.95468 15.4857 7.95468 15.0952 8.3452L4.50987 18.9305C4.11935 19.321 4.11935 19.9542 4.50987 20.3447L7.65534 23.4902C8.04587 23.8807 8.67903 23.8807 9.06955 23.4902L19.6548 12.9049C20.0454 12.5144 20.0454 11.8812 19.6548 11.4907L16.5094 8.3452ZM13.6699 12.5989L15.8023 10.4665L17.5335 12.1978L15.4011 14.3301L13.6699 12.5989ZM12.2557 14.0131L6.63119 19.6376L8.36245 21.3688L13.9869 15.7444L12.2557 14.0131Z" fill="white" fill-opacity="0.5"/>
<path fill-rule="evenodd" clip-rule="evenodd" d="M17.364 3C17.3641 2.44772 16.9163 2 16.3641 2C15.8118 2 15.3641 2.44772 15.3641 3V5C15.3641 5.55228 15.8118 6 16.3641 6C16.9163 6 17.364 5.55228 17.364 5V3ZM25.364 11C25.9163 11 26.364 11.4477 26.364 12C26.364 12.5523 25.9163 13 25.364 13H23.364C22.8117 13 22.364 12.5523 22.364 12C22.364 11.4477 22.8117 11 23.364 11H25.364ZM9.29289 4.92901C9.68342 4.53848 10.3166 4.53848 10.7071 4.92901L12.1213 6.34322C12.5118 6.73375 12.5118 7.36691 12.1213 7.75743C11.7308 8.14796 11.0976 8.14796 10.7071 7.75743L9.29289 6.34322C8.90237 5.9527 8.90237 5.31953 9.29289 4.92901ZM22.0208 19.0711C22.4113 19.4617 23.0445 19.4617 23.435 19.0711C23.8255 18.6806 23.8255 18.0474 23.435 17.6569L22.0208 16.2427C21.6303 15.8522 20.9971 15.8522 20.6066 16.2427C20.2161 16.6332 20.2161 17.2664 20.6066 17.6569L22.0208 19.0711ZM23.4351 4.92901C23.8256 5.31953 23.8256 5.9527 23.4351 6.34322L22.0209 7.75743C21.6304 8.14796 20.9972 8.14796 20.6067 7.75743C20.2161 7.36691 20.2161 6.73375 20.6067 6.34322L22.0209 4.92901C22.4114 4.53848 23.0446 4.53848 23.4351 4.92901Z" fill="white" fill-opacity="0.5"/>
</svg>
