<svg width="28" height="28" viewBox="0 0 28 28" fill="none" xmlns="http://www.w3.org/2000/svg">
<path fill-rule="evenodd" clip-rule="evenodd" d="M14.1921 6.30569C12.0467 6.13199 10.1881 7.70506 10.0147 9.78866C10.0051 9.90408 10.0008 10.0185 10.0017 10.1319C11.3398 10.2011 12.6288 10.7215 13.6356 11.6151C14.0502 11.9831 14.0877 12.6127 13.7193 13.0213C13.3509 13.43 12.7161 13.4629 12.3015 13.0949C11.1659 12.087 9.47592 11.7995 8.01185 12.5041C6.08273 13.4324 5.29383 15.7193 6.2259 17.6038C7.15797 19.4883 9.4708 20.2826 11.3999 19.3543C11.6954 19.2121 11.9632 19.0386 12.2019 18.8403C12.2201 18.8251 12.2387 18.8107 12.2577 18.7971C11.6003 17.6797 11.3334 16.3645 11.5174 15.071C11.5949 14.5265 12.1033 14.1446 12.653 14.2181C13.2027 14.2915 13.5855 14.7924 13.508 15.3369C13.2956 16.8299 13.9993 18.3722 15.409 19.175C17.2662 20.2326 19.6299 19.6007 20.6937 17.7832C21.7576 15.9656 21.1305 13.6305 19.2733 12.5728C19.2523 12.5609 19.2313 12.5492 19.2102 12.5376C18.5114 14.0317 17.1959 15.1636 15.6186 15.6488C15.0903 15.8113 14.5312 15.5153 14.3698 14.9875C14.2084 14.4598 14.5058 13.9002 15.0341 13.7377C16.5029 13.2859 17.6061 11.9979 17.7379 10.414C17.9112 8.33037 16.3376 6.4794 14.1921 6.30569ZM19.7318 10.5693C19.9954 7.36215 17.5769 4.5732 14.358 4.31258C11.1371 4.0518 8.28834 6.41757 8.02125 9.62726C8.00044 9.87724 7.99601 10.1252 8.00712 10.37C7.70893 10.4588 7.41407 10.5724 7.12518 10.7114C4.2151 12.1118 2.99492 15.5823 4.42372 18.4711C5.85252 21.3599 9.37651 22.5474 12.2866 21.147C12.73 20.9336 13.1351 20.6716 13.4979 20.3702C13.5177 20.3537 13.5368 20.3365 13.555 20.3189C13.8142 20.5333 14.0957 20.7285 14.3987 20.901C17.2045 22.4989 20.8033 21.5549 22.4317 18.7729C24.06 15.9909 23.0894 12.4446 20.2836 10.8468C20.1029 10.7438 19.9187 10.6514 19.7318 10.5693Z" fill="#8372FF"/>
</svg>
