<svg width="28" height="28" viewBox="0 0 28 28" fill="none" xmlns="http://www.w3.org/2000/svg">
<path d="M11.0821 17.1303C10.8351 16.6363 10.2344 16.4361 9.74047 16.6831C9.24649 16.9301 9.04627 17.5307 9.29326 18.0247L11.0821 17.1303ZM17.7488 18.0247C17.9958 17.5307 17.7955 16.9301 17.3016 16.6831C16.8076 16.4361 16.2069 16.6363 15.9599 17.1303L17.7488 18.0247ZM9.29326 18.0247C9.73286 18.9039 11.1256 20.2442 13.521 20.2442V18.2442C11.9164 18.2442 11.1981 17.3622 11.0821 17.1303L9.29326 18.0247ZM13.521 20.2442C15.9164 20.2442 17.3092 18.9039 17.7488 18.0247L15.9599 17.1303C15.844 17.3622 15.1256 18.2442 13.521 18.2442V20.2442Z" fill="white" fill-opacity="0.5"/>
<circle cx="13.5" cy="14.5" r="9.5" stroke="white" stroke-opacity="0.5" stroke-width="2"/>
<circle cx="16.8543" cy="12.3141" r="1.68333" stroke="white" stroke-opacity="0.5" stroke-width="1.7"/>
<path d="M9.92891 10.0967C9.43 9.85977 8.83353 10.0722 8.59665 10.5711C8.35977 11.07 8.57219 11.6665 9.07109 11.9033L9.92891 10.0967ZM9.2664 13.2C8.76805 13.4381 8.55704 14.035 8.79508 14.5334C9.03313 15.0317 9.6301 15.2427 10.1284 15.0047L9.2664 13.2ZM11.9088 13.046L11.4778 12.1437L11.9088 13.046ZM9.07109 11.9033L11.4788 13.0465L12.3367 11.2398L9.92891 10.0967L9.07109 11.9033ZM11.4778 12.1437L9.2664 13.2L10.1284 15.0047L12.3398 13.9484L11.4778 12.1437ZM11.4788 13.0465C11.0986 12.866 11.098 12.3251 11.4778 12.1437L12.3398 13.9484C13.4793 13.4041 13.4774 11.7814 12.3367 11.2398L11.4788 13.0465Z" fill="white" fill-opacity="0.5"/>
</svg>
