<svg width="28" height="28" viewBox="0 0 28 28" fill="none" xmlns="http://www.w3.org/2000/svg">
<path fill-rule="evenodd" clip-rule="evenodd" d="M9.04557 16C9.204 18.5844 9.76577 20.8652 10.5773 22.4842C7.7769 21.4588 5.66645 19.0021 5.13193 16H9.04557ZM11.0496 16C11.1876 18.0618 11.6025 19.8445 12.1563 21.1368C12.5 21.9386 12.8578 22.4598 13.1533 22.7514C13.3474 22.9429 13.4627 22.9891 13.5 22.9989C13.5373 22.9891 13.6526 22.9429 13.8467 22.7514C14.1422 22.4598 14.5 21.9386 14.8437 21.1368C15.3975 19.8445 15.8124 18.0618 15.9504 16H11.0496ZM15.9946 14H11.0054C11.0597 11.5153 11.5147 9.36024 12.1563 7.86322C12.5 7.06137 12.8578 6.54025 13.1533 6.24864C13.3474 6.05707 13.4627 6.01091 13.5 6.00109C13.5373 6.01091 13.6526 6.05707 13.8467 6.24864C14.1422 6.54025 14.5 7.06137 14.8437 7.86322C15.4853 9.36024 15.9403 11.5153 15.9946 14ZM17.9544 16C17.796 18.5844 17.2342 20.8652 16.4227 22.4842C19.2231 21.4588 21.3335 19.0021 21.8681 16H17.9544ZM21.9855 14H17.995C17.9348 11.0064 17.3374 8.34064 16.4227 6.51581C19.5284 7.653 21.7854 10.5505 21.9855 14ZM23.9757 15.2201C23.9916 15.1493 24 15.0756 24 15C24 14.9602 23.9977 14.921 23.9932 14.8825C23.9977 14.7555 24 14.628 24 14.5C24 8.70101 19.299 4 13.5 4C7.70101 4 3 8.70101 3 14.5C3 14.628 3.00229 14.7555 3.00684 14.8825C3.00232 14.921 3 14.9602 3 15C3 15.0756 3.0084 15.1493 3.02431 15.2201C3.39434 20.6832 7.94305 25 13.5 25C19.0569 25 23.6057 20.6832 23.9757 15.2201ZM5.01446 14C5.21455 10.5505 7.47165 7.653 10.5773 6.51581C9.66256 8.34064 9.06516 11.0064 9.00501 14H5.01446Z" fill="#8372FF"/>
</svg>
