<svg width="28" height="28" viewBox="0 0 28 28" fill="none" xmlns="http://www.w3.org/2000/svg">
<mask id="path-1-inside-1_11187_261727" fill="white">
<path fill-rule="evenodd" clip-rule="evenodd" d="M14 12.5L5.6 6.19999C4.94076 5.70556 4 6.17594 4 6.99999V21C4 21.824 4.94076 22.2944 5.6 21.8L14 15.5L22.4 21.8C23.0592 22.2944 24 21.824 24 21V6.99998C24 6.17594 23.0592 5.70556 22.4 6.19998L14 12.5Z"/>
</mask>
<path d="M5.6 6.19999L6.8 4.59999L5.6 6.19999ZM14 12.5L12.8 14.1L14 15L15.2 14.1L14 12.5ZM5.6 21.8L6.8 23.4H6.8L5.6 21.8ZM14 15.5L15.2 13.9L14 13L12.8 13.9L14 15.5ZM22.4 21.8L23.6 20.2L22.4 21.8ZM22.4 6.19998L23.6 7.79998V7.79998L22.4 6.19998ZM4.4 7.79999L12.8 14.1L15.2 10.9L6.8 4.59999L4.4 7.79999ZM6 6.99999C6 7.82403 5.05923 8.29441 4.4 7.79999L6.8 4.59999C4.82229 3.11671 2 4.52785 2 6.99999H6ZM6 21V6.99999H2V21H6ZM4.4 20.2C5.05924 19.7056 6 20.1759 6 21H2C2 23.4721 4.82229 24.8833 6.8 23.4L4.4 20.2ZM12.8 13.9L4.4 20.2L6.8 23.4L15.2 17.1L12.8 13.9ZM12.8 17.1L21.2 23.4L23.6 20.2L15.2 13.9L12.8 17.1ZM21.2 23.4C23.1777 24.8833 26 23.4721 26 21H22C22 20.1759 22.9408 19.7056 23.6 20.2L21.2 23.4ZM26 21V6.99998H22V21H26ZM26 6.99998C26 4.52785 23.1777 3.1167 21.2 4.59999L23.6 7.79998C22.9408 8.29441 22 7.82403 22 6.99998H26ZM21.2 4.59998L12.8 10.9L15.2 14.1L23.6 7.79998L21.2 4.59998Z" fill="white" fill-opacity="0.5" mask="url(#path-1-inside-1_11187_261727)"/>
</svg>
