<svg width="17" height="16" viewBox="0 0 17 16" fill="none" xmlns="http://www.w3.org/2000/svg">
<path fill-rule="evenodd" clip-rule="evenodd" d="M12.7779 4.92498C12.9732 4.72972 12.9732 4.41314 12.7779 4.21787C12.5826 4.02261 12.2661 4.02261 12.0708 4.21787L8.99553 7.29314L5.92026 4.21787C5.725 4.02261 5.40842 4.02261 5.21316 4.21787C5.0179 4.41314 5.0179 4.72972 5.21316 4.92498L8.28843 8.00025L5.21322 11.0755C5.01795 11.2707 5.01795 11.5873 5.21322 11.7826C5.40848 11.9778 5.72506 11.9778 5.92032 11.7826L8.99553 8.70736L12.0707 11.7826C12.266 11.9778 12.5826 11.9778 12.7779 11.7826C12.9731 11.5873 12.9731 11.2707 12.7779 11.0755L9.70264 8.00025L12.7779 4.92498Z" fill="white" fill-opacity="0.8"/>
</svg>
