<svg width="16" height="16" viewBox="0 0 16 16" fill="none" xmlns="http://www.w3.org/2000/svg">
<path fill-rule="evenodd" clip-rule="evenodd" d="M6.5 2C6.22386 2 6 2.22386 6 2.5C6 2.77614 6.22386 3 6.5 3H9.5C9.77614 3 10 2.77614 10 2.5C10 2.22386 9.77614 2 9.5 2H6.5ZM11 12H5V5H11V12ZM12 5V12C12 12.5523 11.5523 13 11 13H5C4.44772 13 4 12.5523 4 12V5H3C2.72386 5 2.5 4.77614 2.5 4.5C2.5 4.22386 2.72386 4 3 4H4H12H13C13.2761 4 13.5 4.22386 13.5 4.5C13.5 4.77614 13.2761 5 13 5H12Z" fill="white" fill-opacity="0.5"/>
</svg>
