<svg width="22" height="22" viewBox="0 0 22 22" fill="none" xmlns="http://www.w3.org/2000/svg">
<rect x="0.5" y="0.5" width="21" height="21" rx="10.5" stroke="white" stroke-opacity="0.2"/>
<path d="M7 15C7.35355 15.3536 7.35342 15.3537 7.35328 15.3538C7.35325 15.3539 7.35312 15.354 7.35304 15.3541C7.3529 15.3542 7.35277 15.3543 7.35267 15.3544C7.35246 15.3546 7.35235 15.3548 7.35232 15.3548C7.35226 15.3548 7.35256 15.3545 7.35321 15.3539C7.35452 15.3526 7.35723 15.35 7.36133 15.3461C7.36954 15.3384 7.3833 15.3255 7.4025 15.3084C7.44092 15.274 7.50095 15.2225 7.58159 15.1594C7.7431 15.033 7.98585 14.8614 8.30193 14.6889C8.93424 14.344 9.85225 14 11 14V13C9.64775 13 8.56576 13.406 7.82307 13.8111C7.45165 14.0136 7.16315 14.217 6.96528 14.3719C6.86624 14.4494 6.78955 14.515 6.73617 14.5627C6.70947 14.5866 6.68857 14.606 6.67358 14.6202C6.66609 14.6273 6.66007 14.6331 6.65555 14.6375C6.65328 14.6397 6.65139 14.6415 6.64987 14.643C6.64912 14.6438 6.64845 14.6445 6.64788 14.645C6.64759 14.6453 6.64733 14.6456 6.64709 14.6458C6.64697 14.6459 6.64681 14.6461 6.64675 14.6461C6.6466 14.6463 6.64645 14.6464 7 15ZM11 14C12.1478 14 13.0658 14.344 13.6981 14.6889C14.0142 14.8614 14.2569 15.033 14.4184 15.1594C14.4991 15.2225 14.5591 15.274 14.5975 15.3084C14.6167 15.3255 14.6305 15.3384 14.6387 15.3461C14.6428 15.35 14.6455 15.3526 14.6468 15.3539C14.6474 15.3545 14.6477 15.3548 14.6477 15.3548C14.6477 15.3548 14.6475 15.3546 14.6473 15.3544C14.6472 15.3543 14.6471 15.3542 14.647 15.3541C14.6469 15.354 14.6468 15.3539 14.6467 15.3538C14.6466 15.3537 14.6464 15.3536 15 15C15.3536 14.6464 15.3534 14.6463 15.3532 14.6461C15.3532 14.6461 15.353 14.6459 15.3529 14.6458C15.3527 14.6456 15.3524 14.6453 15.3521 14.645C15.3516 14.6445 15.3509 14.6438 15.3501 14.643C15.3486 14.6415 15.3467 14.6397 15.3445 14.6375C15.3399 14.6331 15.3339 14.6273 15.3264 14.6202C15.3114 14.606 15.2905 14.5866 15.2638 14.5627C15.2105 14.515 15.1338 14.4494 15.0347 14.3719C14.8368 14.217 14.5483 14.0136 14.1769 13.8111C13.4342 13.406 12.3522 13 11 13V14Z" fill="white" fill-opacity="0.2"/>
<circle cx="6.5" cy="8.5" r="1.5" fill="white" fill-opacity="0.2"/>
<circle cx="15.5" cy="8.5" r="1.5" fill="white" fill-opacity="0.2"/>
</svg>
