<svg width="55" height="13" viewBox="0 0 55 13" fill="none" xmlns="http://www.w3.org/2000/svg">
<path d="M4.576 10.208C6.604 10.208 8.229 8.986 8.229 6.672V0.782999H6.175V6.503C6.175 7.621 5.551 8.18 4.576 8.18C3.601 8.18 2.977 7.621 2.977 6.503V0.782999H0.923V6.672C0.923 8.986 2.548 10.208 4.576 10.208ZM11.9368 6.295C11.9368 5.645 12.3528 5.164 13.0028 5.164C13.7178 5.164 14.0558 5.645 14.0558 6.282V10H16.0318V5.944C16.0318 4.527 15.3038 3.37 13.6788 3.37C13.0158 3.37 12.2228 3.669 11.8718 4.28V3.539H9.96084V10H11.9368V6.295ZM17.1593 8.167C17.2113 8.882 17.8613 10.195 19.8893 10.195C21.6183 10.195 22.4633 9.116 22.4633 8.011C22.4633 7.062 21.8133 6.256 20.4743 5.983L19.6163 5.814C19.3303 5.762 19.1093 5.606 19.1093 5.333C19.1093 4.995 19.4343 4.774 19.8113 4.774C20.4093 4.774 20.6823 5.138 20.7343 5.567L22.3723 5.268C22.3073 4.514 21.6573 3.344 19.7853 3.344C18.3423 3.344 17.3023 4.306 17.3023 5.489C17.3023 6.399 17.8483 7.179 19.2263 7.478L19.9673 7.647C20.4483 7.751 20.6043 7.946 20.6043 8.18C20.6043 8.466 20.3573 8.739 19.8503 8.739C19.1743 8.739 18.8623 8.31 18.8363 7.868L17.1593 8.167ZM25.724 12.47V9.493C26.023 9.857 26.647 10.143 27.479 10.143C29.286 10.143 30.56 8.726 30.56 6.75C30.56 4.813 29.429 3.383 27.557 3.383C26.634 3.383 25.932 3.786 25.659 4.202V3.539H23.748V12.47H25.724ZM28.623 6.763C28.623 7.842 27.934 8.375 27.154 8.375C26.387 8.375 25.698 7.829 25.698 6.763C25.698 5.684 26.387 5.164 27.154 5.164C27.934 5.164 28.623 5.684 28.623 6.763ZM33.8109 10V0.588H31.8349V10H33.8109ZM35.1011 8.219C35.1011 9.246 35.9201 10.182 37.3371 10.182C38.1951 10.182 38.8191 9.818 39.1571 9.272C39.1571 9.714 39.2091 9.948 39.2221 10H41.0031C40.9901 9.935 40.9251 9.506 40.9251 8.999V5.84C40.9251 4.514 40.1581 3.344 38.0651 3.344C36.1671 3.344 35.3091 4.566 35.2311 5.489L36.9471 5.84C36.9861 5.359 37.3631 4.891 38.0521 4.891C38.6761 4.891 39.0011 5.216 39.0011 5.593C39.0011 5.814 38.8841 5.983 38.5331 6.035L37.0121 6.269C35.9461 6.425 35.1011 7.075 35.1011 8.219ZM37.8181 8.752C37.2721 8.752 37.0511 8.427 37.0511 8.089C37.0511 7.634 37.3631 7.439 37.7791 7.374L39.0011 7.179V7.465C39.0011 8.466 38.4031 8.752 37.8181 8.752ZM42.0548 8.167C42.1068 8.882 42.7568 10.195 44.7848 10.195C46.5138 10.195 47.3588 9.116 47.3588 8.011C47.3588 7.062 46.7088 6.256 45.3698 5.983L44.5118 5.814C44.2258 5.762 44.0048 5.606 44.0048 5.333C44.0048 4.995 44.3298 4.774 44.7068 4.774C45.3048 4.774 45.5778 5.138 45.6298 5.567L47.2678 5.268C47.2028 4.514 46.5528 3.344 44.6808 3.344C43.2378 3.344 42.1978 4.306 42.1978 5.489C42.1978 6.399 42.7438 7.179 44.1218 7.478L44.8628 7.647C45.3438 7.751 45.4998 7.946 45.4998 8.18C45.4998 8.466 45.2528 8.739 44.7458 8.739C44.0698 8.739 43.7578 8.31 43.7318 7.868L42.0548 8.167ZM50.6195 6.204C50.6585 5.606 51.0615 5.164 51.6855 5.164C52.4005 5.164 52.7385 5.645 52.7385 6.282V10H54.7145V5.944C54.7145 4.527 53.9605 3.37 52.2705 3.37C51.6985 3.37 51.0225 3.552 50.6195 3.955V0.588H48.6435V10H50.6195V6.204Z" fill="white" fill-opacity="0.8"/>
</svg>
