<svg width="67" height="13" viewBox="0 0 67 13" fill="none" xmlns="http://www.w3.org/2000/svg">
<path d="M54.6008 4.21532C54.2421 3.95706 53.9816 3.69524 53.9816 3.37225H51.9874C51.9874 3.9535 51.7268 4.21532 51.4053 4.21532H50.8727V10.1168H61.2282V4.21532H54.5635H54.6008ZM53.9815 5.90141H52.1154V5.05834H54.1865V5.73673L53.9815 5.90141ZM57.4867 9.18357C56.3052 9.18357 55.3439 8.21792 55.3439 7.0309C55.3439 5.84388 56.3052 4.92787 57.4867 4.92787C58.6681 4.92787 59.6293 5.84383 59.6293 7.0309C59.6293 8.21789 58.6682 9.18357 57.4867 9.18357ZM58.6385 7.0309C58.6385 7.66898 58.1218 8.1882 57.4868 8.1882C56.8516 8.1882 56.3349 7.66899 56.3349 7.0309C56.3349 6.39275 56.8516 5.87371 57.4868 5.87371C58.1218 5.87371 58.6385 6.39283 58.6385 7.0309ZM66.6134 3.41251L64.0352 10.101L62.0569 9.29361V8.15373L63.4308 8.7259L65.2449 4.01989L58.4472 1.37484L57.8171 3.3723H56.6828L57.8427 0L66.6135 3.4126L66.6134 3.41251Z" fill="white" fill-opacity="0.8"/>
<path d="M4.11648 2.99194C5.82434 2.95204 7.42737 4.36567 7.60778 6.09877C7.82353 7.62198 6.94298 9.20386 5.56303 9.82202C4.72711 10.2444 3.78312 10.1146 2.88397 10.1361H2.00556V13.0001H0.614189C0.617169 10.7903 0.608573 8.5803 0.618451 6.37042C0.663994 4.72446 1.98861 3.24996 3.58789 3.03083C3.76275 3.0044 3.9401 2.99148 4.11648 2.99179V2.99194ZM4.11648 8.71986C5.12016 8.74547 6.06146 7.94857 6.21126 6.93671C6.41129 5.91813 5.77282 4.82367 4.79681 4.51819C3.8541 4.17778 2.71991 4.62594 2.25959 5.53183C1.90234 6.15077 2.02923 6.8825 2.00553 7.56448V8.7199C2.7092 8.7199 3.41282 8.7199 4.11649 8.71989L4.11648 8.71986Z" fill="white" fill-opacity="0.8"/>
<path d="M8.28073 2.95728H9.65638V10.1017H8.28073V2.95728Z" fill="white" fill-opacity="0.8"/>
<path d="M13.7905 7.46802H13.8407L15.7961 10.1213H17.5009L14.8435 6.44754L17.2001 2.97781H15.4953L13.8406 5.42701H13.7905L12.1358 2.97781H10.4311L12.7877 6.44754L10.1303 10.1213H11.8351L13.7905 7.46802Z" fill="white" fill-opacity="0.8"/>
<path d="M20.616 2.95725C22.0094 2.92926 23.3458 3.85819 23.8614 5.16964C24.1307 5.77874 24.1269 6.45353 24.1182 7.10739V10.1016C22.8766 10.0972 21.6345 10.1103 20.3931 10.0948C18.9657 10.0239 17.6604 8.96468 17.2518 7.5748C16.8772 6.36639 17.1884 4.9632 18.0702 4.06079C18.7289 3.36737 19.665 2.94802 20.616 2.95725H20.616ZM22.7269 8.68559C22.7209 7.89121 22.7394 7.09604 22.7166 6.30222C22.6344 5.23793 21.6656 4.34626 20.6159 4.37365C19.6181 4.34912 18.6773 5.13697 18.5212 6.14238C18.3383 7.10718 18.8826 8.15847 19.7873 8.51855C20.3446 8.76589 20.9602 8.6639 21.5492 8.68559C21.9418 8.68559 22.3343 8.68559 22.7269 8.68559V8.68559Z" fill="white" fill-opacity="0.8"/>
<path d="M28.3058 2.99192C29.9536 2.95058 31.4934 4.26992 31.7558 5.92148C32.0535 7.48663 31.1846 9.17762 29.7524 9.82199C28.3527 10.4942 26.553 10.0611 25.5905 8.8292C24.994 8.11411 24.7369 7.16334 24.7877 6.23627V0.12793H26.1791V2.99184C26.888 2.99193 27.5971 2.99165 28.3059 2.99197L28.3058 2.99192ZM28.3058 8.71984C29.3626 8.74861 30.3286 7.84568 30.4061 6.77579C30.5386 5.71237 29.764 4.64291 28.7298 4.44966C28.1579 4.36998 27.5769 4.42358 27.0008 4.4079H26.1792C26.1881 5.21502 26.1602 6.02365 26.1952 6.82973C26.3057 7.89606 27.2533 8.74077 28.3058 8.71984V8.71984Z" fill="white" fill-opacity="0.8"/>
<path d="M35.8466 2.95725C37.2401 2.92926 38.5764 3.85823 39.0921 5.16964C39.3614 5.77874 39.3576 6.45353 39.3489 7.10739V10.1016C38.1073 10.0972 36.8652 10.1103 35.6238 10.0948C34.1964 10.0239 32.8911 8.96468 32.4825 7.5748C32.1079 6.36639 32.4191 4.9632 33.3009 4.06079C33.9596 3.36737 34.8957 2.94802 35.8466 2.95725H35.8466ZM37.9576 8.68559C37.9516 7.89121 37.9701 7.09604 37.9473 6.30222C37.865 5.23793 36.8962 4.34626 35.8466 4.37365C34.8487 4.34912 33.908 5.13697 33.7518 6.14238C33.5689 7.10718 34.1132 8.15847 35.018 8.51855C35.5753 8.76589 36.1908 8.6639 36.7799 8.68559C37.1724 8.68559 37.565 8.68559 37.9576 8.68559V8.68559Z" fill="white" fill-opacity="0.8"/>
<path d="M47.0067 2.97461C47.0037 5.17911 47.0123 7.38396 47.0024 9.5882C46.9519 11.3232 45.4868 12.8825 43.7763 12.9732C43.4514 12.9907 43.1258 12.98 42.8005 12.9829V11.567C43.3943 11.564 44.0295 11.6253 44.5553 11.2831C45.2122 10.9082 45.6296 10.152 45.6148 9.38728C44.3814 10.3993 42.4694 10.3468 41.27 9.30213C40.3961 8.58423 39.9186 7.42937 39.986 6.29294V2.97474H41.3774C41.3838 4.23597 41.3643 5.49808 41.3877 6.75875C41.4633 7.797 42.373 8.67561 43.3953 8.70044C44.4314 8.78145 45.4286 7.96269 45.5832 6.91968C45.6455 6.29571 45.6013 5.66542 45.6146 5.03864V2.9747C46.0785 2.97467 46.5425 2.97464 47.0065 2.97461H47.0067Z" fill="white" fill-opacity="0.8"/>
</svg>
