<svg width="16" height="16" viewBox="0 0 16 16" fill="none" xmlns="http://www.w3.org/2000/svg">
<circle cx="8" cy="8" r="8" fill="black" fill-opacity="0.5"/>
<path fill-rule="evenodd" clip-rule="evenodd" d="M8 12C5.79086 12 4 10.2091 4 8C4 5.79086 5.79086 4 8 4C9.91203 4 11.5107 5.34155 11.9062 7.13471L10.0572 6.56493L9.76272 7.52058L12.6239 8.40229L12.6247 8.39948L12.9747 8.50599C12.9914 8.3396 13 8.1708 13 8C13 5.23858 10.7614 3 8 3C5.23858 3 3 5.23858 3 8C3 10.7614 5.23858 13 8 13C9.38316 13 10.6351 12.4384 11.5403 11.5307L10.8242 10.8326C10.1007 11.554 9.10242 12 8 12Z" fill="white"/>
</svg>
