<svg width="90" height="70" viewBox="0 0 90 70" fill="none" xmlns="http://www.w3.org/2000/svg">
<path opacity="0.9" fill-rule="evenodd" clip-rule="evenodd" d="M67.5468 32.3726C67.9373 31.9821 67.9383 31.3477 67.5362 30.9692C64.6273 28.2315 61.2435 26.0427 57.5479 24.512C53.5442 22.8536 49.253 22 44.9194 22C40.5858 22 36.2946 22.8536 32.2908 24.512C28.5953 26.0427 25.2114 28.2315 22.3026 30.9692C21.9004 31.3477 21.9014 31.9821 22.292 32.3726L25.2911 35.3717C25.6746 35.7552 26.2926 35.7616 26.6987 35.4021C31.5503 31.1072 37.9304 28.5 44.9194 28.5C51.9084 28.5 58.2885 31.1072 63.1401 35.4021C63.5462 35.7616 64.1642 35.7552 64.5477 35.3717L67.5468 32.3726ZM55.7037 42.9667C56.1163 43.2632 56.6864 43.233 57.0457 42.8737L59.5919 40.3274C59.9911 39.9283 59.9823 39.2762 59.5536 38.9089C55.6193 35.537 50.5073 33.5 44.9194 33.5C39.3315 33.5 34.2194 35.537 30.2851 38.9089C29.8565 39.2762 29.8477 39.9283 30.2468 40.3275L32.7931 42.8737C33.1524 43.233 33.7224 43.2632 34.1351 42.9667C37.1712 40.7848 40.8953 39.5 44.9194 39.5C48.9435 39.5 52.6676 40.7848 55.7037 42.9667ZM52.0196 47.8998C52.4542 47.4652 52.3984 46.7425 51.8718 46.4255C49.8411 45.2031 47.4624 44.5 44.9194 44.5C42.3764 44.5 39.9977 45.2031 37.9669 46.4255C37.4404 46.7425 37.3845 47.4652 37.8192 47.8998L44.2123 54.2929C44.6028 54.6834 45.236 54.6834 45.6265 54.2929L52.0196 47.8998Z" fill="url(#paint0_linear_11187_260924)"/>
<circle opacity="0.8" cx="58" cy="47" r="8" fill="url(#paint1_linear_11187_260924)"/>
<path d="M58 47L58 44" stroke="white" stroke-opacity="0.8" stroke-width="2" stroke-linecap="round"/>
<circle cx="58" cy="50" r="1" fill="white" fill-opacity="0.8"/>
<defs>
<linearGradient id="paint0_linear_11187_260924" x1="30.1314" y1="21.4658" x2="39.9964" y2="57.148" gradientUnits="userSpaceOnUse">
<stop stop-color="#A4A3AD"/>
<stop offset="1" stop-color="#A4A3AD" stop-opacity="0"/>
</linearGradient>
<linearGradient id="paint1_linear_11187_260924" x1="53.6439" y1="40.5238" x2="63.4374" y2="60.0005" gradientUnits="userSpaceOnUse">
<stop stop-color="#A4A3AD"/>
<stop offset="1" stop-color="#C4C4C4" stop-opacity="0"/>
<stop offset="1" stop-color="#A4A3AD" stop-opacity="0"/>
</linearGradient>
</defs>
</svg>
